<?xml version="1.0" encoding="utf-8"?>
<!-- Generator: Adobe Illustrator 16.0.0, SVG Export Plug-In . SVG Version: 6.00 Build 0)  -->
<!DOCTYPE svg PUBLIC "-//W3C//DTD SVG 1.1//EN" "http://www.w3.org/Graphics/SVG/1.1/DTD/svg11.dtd">
<svg version="1.1" id="Layer_1" xmlns="http://www.w3.org/2000/svg" xmlns:xlink="http://www.w3.org/1999/xlink" x="0px" y="0px"
	 width="277px" height="600px" viewBox="0 0 277 600" enable-background="new 0 0 277 600" xml:space="preserve">
<g>
	<path fill="#FFFFFF" stroke="#010101" stroke-miterlimit="10" d="M255.553,3.547c-5.321-2.327-11.509-3.507-18.389-3.507h-2.888
		H41.82h-2.888c-6.88,0-13.067,1.18-18.389,3.507c-4.702,2.054-8.742,5.006-12.007,8.773C2.97,18.74-0.221,27.459-0.221,36.244
		v13.499v500.594v13.499c0,8.784,3.191,17.504,8.756,23.924c3.265,3.768,7.305,6.72,12.007,8.775
		c5.322,2.326,11.509,3.506,18.389,3.506h2.888h192.456h2.888c6.88,0,13.068-1.179,18.389-3.506
		c4.701-2.056,8.741-5.008,12.007-8.775c5.564-6.42,8.757-15.139,8.757-23.924v-13.499V49.743V36.244
		c0-8.785-3.192-17.504-8.757-23.923C264.294,8.554,260.255,5.602,255.553,3.547z M273.234,49.743v500.594v13.499
		c0,8.055-2.918,16.038-8.004,21.906c-2.963,3.418-6.634,6.098-10.912,7.967c-4.93,2.156-10.702,3.25-17.154,3.25h-2.89H41.82
		h-2.888c-6.454,0-12.226-1.094-17.156-3.25c-4.277-1.869-7.95-4.55-10.911-7.967c-5.086-5.868-8.004-13.852-8.004-21.906v-13.499
		V49.743V36.244c0-8.055,2.917-16.039,8.004-21.905c2.961-3.418,6.634-6.1,10.914-7.969c4.928-2.156,10.701-3.25,17.154-3.25h2.888
		h192.455h2.888c6.455,0,12.227,1.094,17.156,3.25c4.277,1.87,7.95,4.55,10.911,7.969c5.087,5.866,8.004,13.85,8.004,21.905
		L273.234,49.743L273.234,49.743z"/>
	<path fill="#FFFFFF" stroke="#010101" stroke-miterlimit="10" d="M138.047,29.896c3.611,0,6.547-2.938,6.547-6.547
		c0-3.609-2.936-6.548-6.547-6.548c-3.609,0-6.547,2.938-6.547,6.548C131.5,26.96,134.438,29.896,138.047,29.896z M138.047,19.113
		c2.337,0,4.237,1.901,4.237,4.237s-1.9,4.236-4.237,4.236c-2.335,0-4.236-1.9-4.236-4.236S135.712,19.113,138.047,19.113z"/>
	<circle fill="#FFFFFF" stroke="#010101" stroke-miterlimit="10" cx="138.047" cy="23.482" r="2.311"/>
	<path fill="#FFFFFF" stroke="#010101" stroke-miterlimit="10" d="M117.057,52.502h41.98c3.298,0,5.97-2.673,5.97-5.969
		c0-3.298-2.672-5.97-5.97-5.97h-41.98c-3.298,0-5.97,2.672-5.97,5.97C111.087,49.83,113.759,52.502,117.057,52.502z
		 M117.057,43.645h41.98c1.594,0,2.888,1.296,2.888,2.889c0,1.592-1.294,2.888-2.888,2.888h-41.98c-1.594,0-2.889-1.297-2.889-2.888
		C114.168,44.941,115.463,43.645,117.057,43.645z"/>
	<path fill="#FFFFFF" stroke="#010101" stroke-miterlimit="10" d="M138.047,535.453c-14.889,0-26.96,12.071-26.96,26.96
		c0,14.892,12.071,26.963,26.96,26.963c14.89,0,26.96-12.071,26.96-26.963C165.007,547.523,152.937,535.453,138.047,535.453z
		 M138.047,586.294c-13.166,0-23.878-10.712-23.878-23.881c0-13.167,10.712-23.877,23.878-23.877
		c13.167,0,23.878,10.711,23.878,23.877C161.925,575.582,151.214,586.294,138.047,586.294z"/>
	<path fill="#FFFFFF" stroke="#010101" stroke-miterlimit="10" d="M143.439,551.572h-10.784c-2.765,0-5.007,2.24-5.007,5.008v10.782
		c0,2.767,2.242,5.009,5.007,5.009h10.784c2.766,0,5.007-2.242,5.007-5.009V556.58C148.446,553.814,146.205,551.572,143.439,551.572
		z M145.366,567.363c0,1.064-0.864,1.926-1.925,1.926h-10.785c-1.062,0-1.925-0.863-1.925-1.926v-10.782
		c0-1.063,0.863-1.926,1.925-1.926h10.785c1.062,0,1.925,0.864,1.925,1.926V567.363z"/>
	<path fill="#FFFFFF" stroke="#010101" stroke-miterlimit="10" d="M261.295,78.386H14.8c-1.702,0-3.082,1.379-3.082,3.08v437.53
		c0,1.701,1.38,3.081,3.082,3.081h246.495c1.702,0,3.08-1.38,3.08-3.081V81.466C264.375,79.765,262.997,78.386,261.295,78.386z
		 M261.295,518.996H14.8V81.466h246.495V518.996z"/>
</g>
</svg>
